HIERARCHY
ROOT Root
{
	OFFSET 0.00000 0.00000 0.00000
	CHANNELS 6 Xposition Yposition Zposition Zrotation Xrotation Yrotation
	JOINT Hips
	{
		OFFSET 0 0 0	
		CHANNELS 3 Zrotation Xrotation Yrotation
		JOINT Spine
		{
			OFFSET 0 4 0	
			CHANNELS 3 Zrotation Xrotation Yrotation
			JOINT Spine1
			{
				OFFSET 0 19.4 0	
				CHANNELS 3 Zrotation Xrotation Yrotation
				JOINT Spine2
				{
					OFFSET 0 16.6 0	
					CHANNELS 3 Zrotation Xrotation Yrotation
					JOINT LeftCollar
					{
						OFFSET 0 10 0	
						CHANNELS 3 Zrotation Xrotation Yrotation
						JOINT LeftArm
						{
							OFFSET 15.6 -2 3	
							CHANNELS 3 Zrotation Xrotation Yrotation
							JOINT LeftForeArm
							{
								OFFSET 3.5 -27 -1	
								CHANNELS 3 Zrotation Xrotation Yrotation
								JOINT LeftHand
								{
									OFFSET 1 -27 1	
									CHANNELS 3 Zrotation Xrotation Yrotation
									End Site
									{
										OFFSET 0 -15 0
									}
								}
							}
						}
					}
					JOINT RightCollar
					{
						OFFSET 0 10 0	
						CHANNELS 3 Zrotation Xrotation Yrotation
						JOINT RightArm
						{
							OFFSET -15.6 -2 3	
							CHANNELS 3 Zrotation Xrotation Yrotation
							JOINT RightForeArm
							{
								OFFSET -3.5 -27 -1	
								CHANNELS 3 Zrotation Xrotation Yrotation
								JOINT RightHand
								{
									OFFSET -1 -27 1	
									CHANNELS 3 Zrotation Xrotation Yrotation
									End Site
									{
										OFFSET 0 -15 0
									}
								}
							}
						}
					}
					JOINT Neck
					{
						OFFSET 0 10 0	
						CHANNELS 3 Zrotation Xrotation Yrotation
						JOINT Head
						{
							OFFSET 0 12.7 3	
							CHANNELS 3 Zrotation Xrotation Yrotation
							End Site
							{
								OFFSET 0 12.7 3
							}
						}
					}
				}
			}
		}
	}
	JOINT LeftHip
	{
		OFFSET 0 0 0	
		CHANNELS 3 Zrotation Xrotation Yrotation
		JOINT LeftUpLeg
		{
			OFFSET 8.8 -6 0	
			CHANNELS 3 Zrotation Xrotation Yrotation
			JOINT LeftLeg
			{
				OFFSET 0 -39 2	
				CHANNELS 3 Zrotation Xrotation Yrotation
				JOINT LeftFoot
				{
					OFFSET 0 -43 -2	
					CHANNELS 3 Zrotation Xrotation Yrotation
					JOINT LeftFootFront
					{
						OFFSET 0 -7 8.5	
						CHANNELS 3 Zrotation Xrotation Yrotation
						End Site
						{
							OFFSET 0 -0.5 9
						}
					}
				}
				JOINT LeftHeel
				{
					OFFSET 0 -43 -2	
					CHANNELS 3 Zrotation Xrotation Yrotation
					End Site
					{
						OFFSET 0 -7.5 -5
					}
				}
			}
		}
	}
	JOINT RightHip
	{
		OFFSET 0 0 0	
		CHANNELS 3 Zrotation Xrotation Yrotation
		JOINT RightUpLeg
		{
			OFFSET -8.8 -6 0	
			CHANNELS 3 Zrotation Xrotation Yrotation
			JOINT RightLeg
			{
				OFFSET 0 -39 2	
				CHANNELS 3 Zrotation Xrotation Yrotation
				JOINT RightFoot
				{
					OFFSET 0 -43 -2	
					CHANNELS 3 Zrotation Xrotation Yrotation
					JOINT RightFootFront
					{
						OFFSET 0 -7 8.5	
						CHANNELS 3 Zrotation Xrotation Yrotation
						End Site
						{
							OFFSET 0 -0.5 9
						}
					}
				}
				JOINT RightHeel
				{
					OFFSET 0 -43 -2	
					CHANNELS 3 Zrotation Xrotation Yrotation
					End Site
					{
						OFFSET 0 -7.5 -5
					}
				}
			}
		}
	}
}
MOTION
Frames: 21
Frame Time: 0.05
0 95.096 0 -0 0 -0 1.1912 2.4765 -64.901 0.24664 3.7174 1.598 0.24664 3.7174 1.598 0.21411 3.1222 1.343 -0 0 -0 1.0863 -8.7841 -15.522 1.1109 -1.4674 8.6896 -13.605 11.886 -3.6092 -0 0 -0 -2.1292 -9.4379 15.866 1.6981 -4.1328 -26.826 3.0956 10.571 6.7241 0.037934 -13.332 -15.241 0.56625 -10.205 -13.881 1.1912 2.4765 -64.901 13.992 -4.4282 6.158 -6.1577 4.7288 3.669 -8.8708 -10.434 -3.2889 4.2689e-07 1.4909e-15 4.0021e-07 -0 0 -0 1.1912 2.4765 -64.901 1.2171 6.7807 -7.1639 2.647 -9.1502 -0.068291 -5.8891 -8.1681 2.3352 0 0 -1.5741e-06 -0 0 -0 
0 95.101 0 -0 0 -0 1.3071 2.5481 -64.978 0.25887 3.6689 1.6031 0.25887 3.6689 1.6031 0.22431 3.0814 1.3474 -0 0 -0 1.0901 -8.7272 -15.628 1.1163 -1.4581 8.7564 -13.602 11.859 -3.6282 -0 0 -0 -2.1351 -9.3582 15.821 1.7026 -4.2248 -26.757 3.2465 10.636 6.6406 -0.0094312 -13.335 -15.274 0.53078 -10.25 -13.906 1.3071 2.5481 -64.978 14.058 -4.5995 6.2842 -6.1569 4.7684 3.7145 -8.9152 -10.399 -3.3463 0.013138 -0.004692 0.0030531 -0 0 -0 1.3071 2.5481 -64.978 1.2824 6.6581 -7.1368 2.6093 -9.2566 -0.053591 -5.8951 -8.0815 2.3751 0.012534 -0.022703 -0.0081497 -0 0 -0 
0 95.106 0 -0 0 -0 1.4403 2.6177 -65.044 0.26873 3.5943 1.5995 0.26873 3.5943 1.5995 0.23243 3.0187 1.3444 -0 0 -0 1.0627 -8.6094 -15.708 1.1748 -1.4278 8.725 -13.605 11.819 -3.5833 -0 0 -0 -2.1488 -9.231 15.786 1.7216 -4.2819 -26.698 3.2802 10.563 6.5463 -0.063798 -13.251 -15.284 0.48246 -10.23 -13.916 1.4403 2.6177 -65.044 14.15 -4.777 6.4214 -6.2055 4.8024 3.7088 -8.9244 -10.375 -3.3632 0.014262 0.0037691 0.0058973 -0 0 -0 1.4403 2.6177 -65.044 1.3096 6.4439 -7.1504 2.6389 -9.2845 -0.015042 -5.9269 -8.0157 2.4207 0.00757 -0.012239 -0.0041892 -0 0 -0 
0 95.108 0 -0 0 -0 1.6394 2.6566 -65.078 0.25595 3.4754 1.5646 0.25595 3.4754 1.5646 0.22134 2.9189 1.315 -0 0 -0 1.0604 -8.398 -15.729 1.2209 -1.3991 8.7053 -13.61 11.7 -3.4991 -0 0 -0 -2.1246 -9.0611 15.797 1.7582 -4.2969 -26.644 3.3467 10.542 6.4535 -0.095785 -13.067 -15.24 0.42858 -10.147 -13.901 1.6394 2.6566 -65.078 14.179 -5.001 6.5337 -6.2907 4.8519 3.7166 -8.8947 -10.367 -3.3896 0.013272 0.0034109 0.0062469 -0 0 -0 1.6394 2.6566 -65.078 1.2998 6.111 -7.1981 2.6992 -9.2716 0.028055 -6.0178 -7.9116 2.4719 -0.0007481 -0.0028439 -0.0080011 -0 0 -0 
0 95.105 0 -0 0 -0 1.8868 2.8251 -65.121 0.28773 3.3132 1.5285 0.28773 3.3132 1.5285 0.24759 2.7826 1.2848 -0 0 -0 1.0391 -8.1708 -15.712 1.2534 -1.3995 8.6632 -13.547 11.606 -3.4182 -0 0 -0 -2.1424 -8.8724 15.83 1.8096 -4.3439 -26.598 3.202 10.333 6.3477 -0.15632 -12.827 -15.189 0.38248 -10.044 -13.878 1.8868 2.8251 -65.121 14.277 -5.3141 6.6579 -6.3007 4.9344 3.7148 -8.9115 -10.402 -3.4009 0.0063804 -0.0019812 0.0071409 -0 0 -0 1.8868 2.8251 -65.121 1.3824 5.7513 -7.2068 2.7282 -9.226 0.079253 -6.0851 -7.898 2.4658 0.0029609 -0.00014839 -0.010265 -0 0 -0 
0 95.094 0 -0 0 -0 2.1607 3.0199 -65.158 0.34057 3.1282 1.4976 0.34057 3.1282 1.4976 0.29153 2.6271 1.259 -0 0 -0 0.989 -7.9172 -15.698 1.2562 -1.3925 8.6311 -13.525 11.51 -3.2992 -0 0 -0 -2.2034 -8.6665 15.868 1.874 -4.3797 -26.572 3.1884 10.289 6.1935 -0.23569 -12.555 -15.146 0.33586 -9.9301 -13.858 2.1607 3.0199 -65.158 14.4 -5.6511 6.7841 -6.305 4.9726 3.7144 -8.9515 -10.407 -3.4103 0.0014632 0.0028329 0.0073156 -0 0 -0 2.1607 3.0199 -65.158 1.4449 5.3939 -7.2123 2.7971 -9.1894 0.15299 -6.1556 -7.9026 2.4281 0.0059966 -0.013339 -0.0098001 -0 0 -0 
0 95.076 0 -0 0 -0 2.5651 3.2865 -65.159 0.39393 2.8953 1.5015 0.39393 2.8953 1.5015 0.33596 2.4314 1.2624 -0 0 -0 0.97596 -7.6827 -15.804 1.2308 -1.3981 8.5913 -13.443 11.38 -3.2147 -0 0 -0 -2.2365 -8.5098 15.785 2.0114 -4.319 -26.563 3.0275 9.9977 6.0975 -0.31678 -12.291 -15.186 0.29464 -9.864 -13.892 2.5651 3.2865 -65.159 14.543 -6.171 6.9294 -6.3063 5.0644 3.7027 -9.0061 -10.426 -3.4325 -0.006142 0.0063266 0.0060024 -0 0 -0 2.5651 3.2865 -65.159 1.5156 4.9528 -7.2543 2.8083 -9.1388 0.24728 -6.1571 -7.9949 2.3508 0.0068121 -0.016361 -0.0069884 -0 0 -0 
0 95.054 0 -0 0 -0 2.9849 3.594 -65.139 0.47393 2.6663 1.4954 0.47393 2.6663 1.4954 0.40273 2.2388 1.2575 -0 0 -0 0.93084 -7.5076 -15.883 1.1865 -1.3839 8.5838 -13.351 11.281 -3.1634 -0 0 -0 -2.2967 -8.3458 15.808 2.0083 -4.339 -26.569 3.0376 9.9708 5.9131 -0.41201 -12.075 -15.21 0.26089 -9.8422 -13.919 2.9849 3.594 -65.139 14.706 -6.7362 7.122 -6.3413 5.241 3.6336 -9.025 -10.513 -3.4682 -0.0074059 0.012731 0.010083 -0 0 -0 2.9849 3.594 -65.139 1.6268 4.451 -7.3419 2.7316 -8.9932 0.3605 -6.0822 -8.1555 2.259 -0.0061098 -0.020344 -0.0059395 -0 0 -0 
0 95.029 0 -0 0 -0 3.4567 3.9269 -65.094 0.56934 2.3482 1.495 0.56934 2.3482 1.495 0.48232 1.9715 1.2572 -0 0 -0 0.84607 -7.1783 -15.915 1.1551 -1.3088 8.5115 -13.196 11.102 -3.1826 -0 0 -0 -2.3785 -8.036 15.794 1.9912 -4.3212 -26.563 2.9865 9.8775 5.8314 -0.5274 -11.663 -15.211 0.21629 -9.7005 -13.918 3.4567 3.9269 -65.094 14.816 -7.3017 7.2501 -6.3712 5.2927 3.5885 -9 -10.549 -3.4757 -0.015347 0.021305 0.022722 -0 0 -0 3.4567 3.9269 -65.094 1.6821 3.8488 -7.4887 2.7416 -8.8376 0.50167 -6.0474 -8.2811 2.181 -0.010189 -0.017595 -0.012023 -0 0 -0 
0 95.005 0 -0 0 -0 3.9346 4.2525 -65.001 0.67997 1.9969 1.4895 0.67997 1.9969 1.4895 0.57463 1.6762 1.2527 -0 0 -0 0.71393 -6.7663 -15.906 1.1921 -1.2283 8.334 -13.101 10.859 -3.109 -0 0 -0 -2.4515 -7.6819 15.749 1.9155 -4.2483 -26.51 3.0556 9.9399 5.887 -0.65504 -11.292 -15.206 0.17204 -9.6279 -13.917 3.9346 4.2525 -65.001 14.886 -7.8703 7.3069 -6.3512 5.3328 3.5434 -9.0095 -10.581 -3.4567 -0.010405 0.0062609 0.012315 -0 0 -0 3.9346 4.2525 -65.001 1.7222 3.2127 -7.6041 2.7703 -8.6882 0.56038 -6.0433 -8.3715 2.1025 0.00052716 -0.0069699 -0.021827 -0 0 -0 
0 94.982 0 -0 0 -0 4.3806 4.5406 -64.83 0.76628 1.6669 1.4932 0.76628 1.6669 1.4932 0.64656 1.3989 1.2558 -0 0 -0 0.65968 -6.357 -15.938 1.1388 -1.2698 8.2516 -12.726 10.554 -3.2209 -0 0 -0 -2.5 -7.3041 15.707 1.8293 -4.1932 -26.471 3.1672 9.951 5.9908 -0.72502 -10.976 -15.237 0.16736 -9.5901 -13.946 4.3806 4.5406 -64.83 14.921 -8.3963 7.272 -6.2846 5.3409 3.4338 -9.0502 -10.623 -3.3838 -0.034066 0.0072551 0.013732 -0 0 -0 4.3806 4.5406 -64.83 1.7766 2.6404 -7.7467 2.7654 -8.5874 0.56199 -6.0325 -8.4311 2.0214 0.02347 0.005739 -0.0065743 -0 0 -0 
0 94.96 0 -0 0 -0 4.7299 4.8936 -64.623 0.9175 1.3699 1.4963 0.9175 1.3699 1.4963 0.77308 1.1491 1.2584 -0 0 -0 0.54399 -5.9757 -15.877 1.0896 -1.3408 8.0783 -12.016 9.8147 -3.4167 -0 0 -0 -2.717 -6.8693 15.697 1.7924 -4.2489 -26.42 3.2658 9.9174 6.1138 -0.8436 -10.724 -15.258 0.17015 -9.5913 -13.966 4.7299 4.8936 -64.623 15.076 -8.8692 7.2136 -6.3523 5.3342 3.4028 -9.0224 -10.64 -3.3977 -0.050984 -0.0023497 0.011384 -0 0 -0 4.7299 4.8936 -64.623 1.9653 1.9755 -7.9324 2.681 -8.3594 0.55225 -5.974 -8.4614 1.9726 0.025088 0.011124 -0.0054406 -0 0 -0 
0 94.94 0 -0 0 -0 5.0939 5.2982 -64.401 1.0775 1.0449 1.5152 1.0775 1.0449 1.5153 0.90692 0.87581 1.2741 -0 0 -0 0.45525 -5.5059 -15.765 0.97564 -1.4315 7.9125 -10.778 8.3976 -3.6711 -0 0 -0 -2.8246 -6.5317 15.648 1.7197 -4.2082 -26.335 3.3683 9.8249 6.4317 -0.95502 -10.46 -15.305 0.18926 -9.6029 -13.998 5.0939 5.2982 -64.401 15.226 -9.4108 7.215 -6.342 5.3907 3.2865 -9.0406 -10.697 -3.4106 -0.031199 -0.0080473 0.0071196 -0 0 -0 5.0939 5.2982 -64.401 2.2165 1.2108 -8.1057 2.6184 -8.0903 0.53395 -5.9765 -8.4688 1.913 0.021006 0.013335 -0.0061434 -0 0 -0 
0 94.921 0 -0 0 -0 5.4679 5.604 -64.096 1.2103 0.74875 1.5462 1.2103 0.74875 1.5462 1.018 0.62676 1.2998 -0 0 -0 0.41011 -5.0046 -15.608 0.6638 -1.5807 7.7588 -8.9895 6.3872 -3.9163 -0 0 -0 -2.8211 -6.3746 15.621 1.6208 -4.1345 -26.262 3.1111 9.5151 7.0748 -1.0998 -10.269 -15.396 0.15561 -9.665 -14.065 5.4679 5.604 -64.096 15.281 -9.9716 7.1228 -6.2803 5.4416 3.2241 -9.1108 -10.713 -3.4705 -0.016664 -0.010796 0.0098548 -0 0 -0 5.4679 5.604 -64.096 2.3007 0.56558 -8.3338 2.6547 -7.8498 0.47082 -6.0018 -8.5284 1.8689 0.011818 0.016798 -0.010088 -0 0 -0 
0 94.908 0 -0 0 -0 5.8682 6.0502 -63.56 1.4032 0.47791 1.4925 1.4032 0.4779 1.4925 1.1795 0.39899 1.2545 -0 0 -0 0.42684 -4.6913 -15.143 0.22391 -1.7707 7.4047 -7.0037 4.1196 -3.9938 -0 0 -0 -2.94 -6.3996 16.005 1.6862 -4.2948 -26.141 2.3793 8.6886 7.817 -1.3005 -10.246 -15.419 0.10738 -9.8733 -14.137 5.8682 6.0502 -63.56 15.457 -10.67 6.8209 -6.2936 5.4385 3.175 -9.1366 -10.685 -3.5182 0.00096821 -0.018395 0.0055124 -0 0 -0 5.8682 6.0502 -63.56 2.49 -0.11737 -8.8605 2.6385 -7.6467 0.45345 -5.9622 -8.6038 1.8317 0.0004682 0.020002 -0.0067896 -0 0 -0 
0 94.905 0 -0 0 -0 5.9981 6.156 -63.371 1.5256 0.51315 1.6436 1.5256 0.51315 1.6436 1.2825 0.42811 1.3815 -0 0 -0 0.64206 -4.861 -14.766 -0.27117 -2.0348 7.0085 -5.2712 2.1208 -3.9374 -0 0 -0 -3.2529 -6.9077 16.368 1.8876 -4.6114 -25.616 1.2551 7.165 8.3387 -1.4872 -10.623 -15.581 0.056383 -10.228 -14.166 5.9981 6.156 -63.371 15.507 -10.862 6.7348 -6.3566 5.4089 3.1772 -9.1211 -10.673 -3.5718 0.035681 -0.023414 0.004227 -0 0 -0 5.9981 6.156 -63.371 2.5961 -0.29254 -9.0882 2.5173 -7.5359 0.47625 -5.9094 -8.7007 1.8152 0.0064981 0.020303 -0.0049661 -0 0 -0 
0 94.916 0 -0 0 -0 6.1236 6.1685 -63.211 1.5989 0.63199 1.8376 1.5989 0.63199 1.8375 1.3445 0.52744 1.5447 -0 0 -0 1.1327 -5.1714 -14.621 -1.016 -2.5079 6.9956 -3.8418 0.84006 -4.0625 -0 0 -0 -3.3676 -7.5857 16.876 1.8194 -5.1879 -25.327 -0.13194 5.2555 8.9873 -1.6029 -11.073 -15.734 0.046615 -10.585 -14.149 6.1236 6.1685 -63.211 15.441 -10.95 6.6666 -6.3321 5.404 3.1081 -9.1239 -10.752 -3.581 0.031237 -0.015237 0.0081373 -0 0 -0 6.1236 6.1685 -63.211 2.7207 -0.35042 -9.3638 2.3277 -7.5532 0.52544 -5.8497 -8.7578 1.8623 0.021789 0.021266 -0.0097439 -0 0 -0 
0 94.945 0 -0 0 -0 6.2562 6.0156 -63.01 1.6784 0.80371 2.0534 1.6784 0.80371 2.0534 1.4118 0.67109 1.7264 -0 0 -0 1.6799 -5.4907 -14.756 -1.76 -3.0736 6.957 -2.7627 0.21175 -4.2606 -0 0 -0 -3.2243 -8.4352 17.374 1.3894 -5.8764 -25.286 -1.6081 3.4143 10.076 -1.8049 -11.505 -15.915 -0.03771 -10.883 -14.136 6.2562 6.0156 -63.01 15.215 -10.999 6.5603 -6.3029 5.4024 3.0319 -9.1339 -10.804 -3.5968 0.024526 -0.0049257 0.007496 -0 0 -0 6.2562 6.0156 -63.01 2.6089 -0.48975 -9.7573 2.1972 -7.4906 0.60694 -5.7585 -8.7356 1.9488 0.01381 0.013752 -0.01198 -0 0 -0 
0 94.991 0 -0 0 -0 6.3815 5.8151 -62.726 1.8103 1.0499 2.2647 1.8103 1.0499 2.2647 1.5234 0.87711 1.9046 -0 0 -0 2.2078 -5.9263 -15.029 -2.3923 -3.5972 6.8296 -1.8671 -0.0084077 -4.7294 -0 0 -0 -2.9633 -9.7247 17.594 0.8194 -6.2376 -24.742 -2.7525 2.0075 10.734 -2.151 -11.98 -16.127 -0.21703 -11.168 -14.154 6.3815 5.8151 -62.726 14.868 -11.144 6.3918 -6.275 5.4661 2.9578 -9.0742 -10.812 -3.6322 -0.006626 -0.0033719 0.0060816 -0 0 -0 6.3815 5.8151 -62.726 2.4059 -0.70708 -10.207 2.1342 -7.3752 0.65965 -5.7136 -8.665 2.0407 0.0038414 0.0058593 -0.0052464 -0 0 -0 
0 95.051 0 -0 0 -0 6.4323 5.7108 -62.36 2.131 1.3436 2.5 2.131 1.3436 2.5 1.7939 1.1224 2.1033 -0 0 -0 2.5208 -6.3832 -15.42 -3.0646 -4.0225 6.7432 -0.87753 -0.11958 -5.663 -0 0 -0 -2.9537 -11.384 17.688 0.50611 -6.0819 -23.269 -3.2515 1.5371 10.575 -2.7991 -12.462 -16.418 -0.52924 -11.435 -14.219 6.4323 5.7108 -62.36 14.663 -11.419 6.1121 -6.311 5.5899 2.9233 -9.002 -10.75 -3.6458 -0.034005 0.0013763 0.007223 -0 0 -0 6.4323 5.7108 -62.36 2.2398 -1.0398 -10.697 2.1377 -7.1481 0.70227 -5.7016 -8.5652 2.1118 0.0020216 -0.0029742 -0.0058191 -0 0 -0 
0 95.121 0 -0 0 -0 6.6113 5.5675 -61.975 2.5055 1.7699 2.8423 2.5055 1.7699 2.8423 2.1104 1.4784 2.3927 -0 0 -0 2.6922 -7.2211 -15.973 -3.7317 -4.3845 6.4959 0.22118 -0.27976 -6.7812 -0 0 -0 -3.3372 -13.283 18.142 0.64547 -5.9617 -21.204 -3.4396 2.002 9.978 -3.6097 -13.206 -16.921 -0.91811 -11.869 -14.386 6.6113 5.5675 -61.975 14.473 -11.901 5.9251 -6.3575 5.8103 2.7619 -9.0269 -10.655 -3.6029 -0.042301 0.015289 0.012584 -0 0 -0 6.6113 5.5675 -61.975 1.9699 -1.7418 -11.373 2.059 -6.5931 0.80973 -5.6327 -8.533 2.2544 -0.008719 -0.0035634 -0.0093643 -0 0 -0 
